<svg xmlns="http://www.w3.org/2000/svg" xmlns:xlink="http://www.w3.org/1999/xlink" viewBox="0 0 325.27775 145.06064"><defs><style>.ed361759-770f-4243-83c5-760b938927ee{fill:none;}.f648edff-c708-48a2-81cb-bd2be2ee81a7{fill:#fff;}.bc8e8bf3-d60f-4fc1-ab7f-776d16da2f9d{clip-path:url(#e2d037ca-d3d0-41db-95a4-e29b11d7c1cf);}.a5ad4e62-307a-497f-8f49-40821f8b0df4{clip-path:url(#fc0a94e8-7e52-4fbf-b53e-15d2b91494f1);}</style><clipPath id="e2d037ca-d3d0-41db-95a4-e29b11d7c1cf" transform="translate(-13.90877 -23.16494)"><polygon class="ed361759-770f-4243-83c5-760b938927ee" points="6 128 26.704 112.184 339 102 349 120 343 173 21 173 6 128"/></clipPath><clipPath id="fc0a94e8-7e52-4fbf-b53e-15d2b91494f1" transform="translate(-13.90877 -23.16494)"><polygon class="ed361759-770f-4243-83c5-760b938927ee" points="0 70.89 26.72 103.361 236.487 96.435 243.249 0 4.17 4.17 0 70.89"/></clipPath></defs><title>Element 1</title><g id="fb28b726-d610-4376-8e08-5948592e7315" data-name="Ebene 2"><g id="bfd601d6-5b3a-4e3a-b08d-4771f9ad36c0" data-name="Ebene 1"><rect class="f648edff-c708-48a2-81cb-bd2be2ee81a7" x="13.89078" y="100.5011" width="324.1958" height="4.25947" transform="translate(-17.19944 -17.30197) rotate(-1.89093)"/><g class="bc8e8bf3-d60f-4fc1-ab7f-776d16da2f9d"><path class="f648edff-c708-48a2-81cb-bd2be2ee81a7" d="M43.41553,103.32324q-7.25317,0-11.0586,4.12451-3.80712,4.12574-3.80713,11.82959v32.99414q0,7.70508,3.80713,11.82911,3.80714,4.12645,11.0586,4.125,7.251,0,11.05859-4.125,3.80714-4.12355,3.80713-11.82911v-20.123H44.32178v9.06445h4.53271v11.69336q0,6.16407-5.167,6.16406-5.16651,0-5.167-6.16406V118.64209q0-6.25414,5.167-6.25439,5.16651,0,5.167,6.25439v6.79834h9.42676v-6.16309q0-7.70435-3.80713-11.82959Q50.667,103.32422,43.41553,103.32324Z" transform="translate(-13.90877 -23.16494)"/><polygon class="f648edff-c708-48a2-81cb-bd2be2ee81a7" points="50.809 144.335 78.002 144.335 78.002 135.271 60.779 135.271 60.779 116.689 74.467 116.689 74.467 107.624 60.779 107.624 60.779 89.948 78.002 89.948 78.002 80.883 50.809 80.883 50.809 144.335"/><polygon class="f648edff-c708-48a2-81cb-bd2be2ee81a7" points="106.827 118.864 96.583 80.883 84.075 80.883 84.075 144.335 93.048 144.335 93.048 98.378 105.467 144.335 115.71 144.335 115.71 80.883 106.827 80.883 106.827 118.864"/><polygon class="f648edff-c708-48a2-81cb-bd2be2ee81a7" points="122.87 144.335 150.063 144.335 150.063 135.271 132.841 135.271 132.841 116.689 146.528 116.689 146.528 107.624 132.841 107.624 132.841 89.948 150.063 89.948 150.063 80.883 122.87 80.883 122.87 144.335"/><path class="f648edff-c708-48a2-81cb-bd2be2ee81a7" d="M200.04883,159.79492v-9.78906a21.0607,21.0607,0,0,0-1.54151-8.65723A9.19021,9.19021,0,0,0,193.43115,136.5q6.52662-3.082,6.52686-12.87207v-4.98584q0-7.43115-3.53516-11.01318-3.5354-3.58008-11.24023-3.58057H170.13574V167.5h9.97071V141.666h3.44482q3.44312,0,4.98535,1.85839,1.54029,1.85889,1.541,6.209v9.9707a43.46974,43.46974,0,0,0,.18115,4.89551,14.51858,14.51858,0,0,0,.7251,2.90039h10.15185a10.94407,10.94407,0,0,1-.90527-3.30859A41.9879,41.9879,0,0,1,200.04883,159.79492Zm-10.062-33.90039q0,3.62548-1.49561,5.166a5.9805,5.9805,0,0,1-4.48682,1.541h-3.89794V113.11279h4.80419a4.62427,4.62427,0,0,1,3.85254,1.541q1.22388,1.54248,1.22364,4.98486Z" transform="translate(-13.90877 -23.16494)"/><path class="f648edff-c708-48a2-81cb-bd2be2ee81a7" d="M214.09766,104.04834,203.94531,167.5h9.15528l1.72265-11.51172h12.23633L228.78223,167.5h10.06152l-10.15234-63.45166ZM216.0918,147.377l4.80371-32.08838L225.7002,147.377Z" transform="translate(-13.90877 -23.16494)"/><polygon class="f648edff-c708-48a2-81cb-bd2be2ee81a7" points="223.213 89.948 233.637 89.948 233.637 144.335 243.608 144.335 243.608 89.948 254.033 89.948 254.033 80.883 223.213 80.883 223.213 89.948"/><path class="f648edff-c708-48a2-81cb-bd2be2ee81a7" d="M286.6123,103.32324q-7.3418,0-11.23925,4.16944-3.89941,4.17041-3.89844,11.78466v32.99414q0,7.61427,3.89844,11.78418,3.89648,4.17042,11.23925,4.16993,7.34326,0,11.24024-4.16993,3.89649-4.16894,3.89844-11.78418V119.27734q0-7.615-3.89844-11.78466Q293.9546,103.32447,286.6123,103.32324Zm5.167,49.583q0,6.25488-5.167,6.25488-5.16649,0-5.166-6.25488V118.64209q0-6.25414,5.166-6.25439,5.168,0,5.167,6.25439Z" transform="translate(-13.90877 -23.16494)"/><path class="f648edff-c708-48a2-81cb-bd2be2ee81a7" d="M338.28027,164.19141a42.579,42.579,0,0,1-.18066-4.39649v-9.78906a21.0693,21.0693,0,0,0-1.541-8.65723A9.19176,9.19176,0,0,0,331.48242,136.5q6.52589-3.082,6.52637-12.87207v-4.98584q0-7.43115-3.53516-11.01318-3.53613-3.58008-11.24023-3.58057H308.18652V167.5h9.97071V141.666h3.44433q3.44385,0,4.98535,1.85839,1.541,1.85889,1.541,6.209v9.9707a43.31364,43.31364,0,0,0,.18164,4.89551,14.42329,14.42329,0,0,0,.72559,2.90039h10.15136A11.00328,11.00328,0,0,1,338.28027,164.19141Zm-10.24218-38.29688q0,3.62548-1.4961,5.166a5.9817,5.9817,0,0,1-4.4873,1.541h-3.89746V113.11279h4.80468a4.62161,4.62161,0,0,1,3.85157,1.541q1.2246,1.54248,1.22461,4.98486Z" transform="translate(-13.90877 -23.16494)"/></g><g class="a5ad4e62-307a-497f-8f49-40821f8b0df4"><path class="f648edff-c708-48a2-81cb-bd2be2ee81a7" d="M58.67624,23.16494v12.681H44.09287l.38686,69.79346H30.57981l-.4364-69.79346H15.56071v-12.681Z" transform="translate(-13.90877 -23.16494)"/><path class="f648edff-c708-48a2-81cb-bd2be2ee81a7" d="M97.85866,60.5739v12.681H78.71031V99.25137H102.8044v12.681H64.76153V23.16494H102.8044v12.681H78.71031v24.728Z" transform="translate(-13.90877 -23.16494)"/><path class="f648edff-c708-48a2-81cb-bd2be2ee81a7" d="M142.49585,111.93233l-2.40941-16.105h-17.1197l-2.40941,16.105H107.74946l14.20262-88.76739h20.41685l14.20262,88.76739ZM138.184,83.78025l-6.72056-44.891-6.72123,44.891Z" transform="translate(-13.90877 -23.16494)"/><path class="f648edff-c708-48a2-81cb-bd2be2ee81a7" d="M202.09649,23.16494H221.498v88.76739H208.31005V48.2737l-9.63763,63.65863h-13.188L175.086,49.16145v62.77088H162.912V23.16494h19.40219l10.27155,63.02472Z" transform="translate(-13.90877 -23.16494)"/></g></g></g></svg>