<svg xmlns="http://www.w3.org/2000/svg" xmlns:xlink="http://www.w3.org/1999/xlink" viewBox="0 0 325.27775 123.78418"><defs><style>.f2850640-f32e-4378-93fb-52726824a708{fill:none;}.ab81b008-3117-470c-ad1e-ba93b6b9f9ea{fill:#fff;}.a188d32d-1c46-4ab6-974d-5b3d496a70c9{clip-path:url(#e57968a4-37ce-4555-8eaf-18f6ee6bdc19);}.bbbc52a1-8f31-48fb-81d8-3041aed52e27{clip-path:url(#a6b8aeb8-1849-4803-99a8-e1c7249a487d);}</style><clipPath id="e57968a4-37ce-4555-8eaf-18f6ee6bdc19" transform="translate(-7.90877 -16.44141)"><polygon class="f2850640-f32e-4378-93fb-52726824a708" points="0 100 20.704 84.184 333 74 343 92 337 145 15 145 0 100"/></clipPath><clipPath id="a6b8aeb8-1849-4803-99a8-e1c7249a487d" transform="translate(-7.90877 -16.44141)"><polygon class="f2850640-f32e-4378-93fb-52726824a708" points="52.88 50.314 71.844 73.361 220.727 68.445 225.526 0 55.839 2.96 52.88 50.314"/></clipPath></defs><title>Element 3</title><g id="ec28fbda-688d-4057-824f-af5fd2247e5e" data-name="Ebene 2"><g id="b61253ab-0e69-4bd4-a22c-1111a63023cc" data-name="Ebene 1"><rect class="ab81b008-3117-470c-ad1e-ba93b6b9f9ea" x="7.89078" y="72.5011" width="324.1958" height="4.25947" transform="matrix(0.99946, -0.033, 0.033, 0.99946, -10.2788, -10.79167)"/><g class="a188d32d-1c46-4ab6-974d-5b3d496a70c9"><path class="ab81b008-3117-470c-ad1e-ba93b6b9f9ea" d="M37.41553,75.32324q-7.25317,0-11.0586,4.12451-3.80712,4.12574-3.80713,11.82959v32.99414q0,7.70508,3.80713,11.82911,3.80714,4.12645,11.0586,4.125,7.251,0,11.05859-4.125,3.80714-4.12355,3.80713-11.82911v-20.123H38.32178v9.06445h4.53271v11.69336q0,6.16407-5.167,6.16406-5.16649,0-5.167-6.16406V90.64209q0-6.25414,5.167-6.25439,5.16653,0,5.167,6.25439v6.79834h9.42676V91.27734q0-7.70435-3.80713-11.82959Q44.667,75.32422,37.41553,75.32324Z" transform="translate(-7.90877 -16.44141)"/><polygon class="ab81b008-3117-470c-ad1e-ba93b6b9f9ea" points="50.809 123.059 78.002 123.059 78.002 113.994 60.779 113.994 60.779 95.412 74.467 95.412 74.467 86.348 60.779 86.348 60.779 68.671 78.002 68.671 78.002 59.607 50.809 59.607 50.809 123.059"/><polygon class="ab81b008-3117-470c-ad1e-ba93b6b9f9ea" points="106.827 97.588 96.583 59.607 84.075 59.607 84.075 123.059 93.048 123.059 93.048 77.102 105.467 123.059 115.71 123.059 115.71 59.607 106.827 59.607 106.827 97.588"/><polygon class="ab81b008-3117-470c-ad1e-ba93b6b9f9ea" points="122.87 123.059 150.063 123.059 150.063 113.994 132.841 113.994 132.841 95.412 146.528 95.412 146.528 86.348 132.841 86.348 132.841 68.671 150.063 68.671 150.063 59.607 122.87 59.607 122.87 123.059"/><path class="ab81b008-3117-470c-ad1e-ba93b6b9f9ea" d="M194.04883,131.79492v-9.78906a21.0607,21.0607,0,0,0-1.54151-8.65723A9.19021,9.19021,0,0,0,187.43115,108.5q6.52662-3.082,6.52686-12.87207V90.64209q0-7.43115-3.53516-11.01318-3.5354-3.58008-11.24023-3.58057H164.13574V139.5h9.97071V113.666h3.44482q3.44312,0,4.98535,1.85839,1.54029,1.85889,1.541,6.209v9.9707a43.46974,43.46974,0,0,0,.18115,4.89551,14.51858,14.51858,0,0,0,.7251,2.90039h10.15185a10.94407,10.94407,0,0,1-.90527-3.30859A41.9879,41.9879,0,0,1,194.04883,131.79492Zm-10.062-33.90039q0,3.62548-1.49561,5.166a5.9805,5.9805,0,0,1-4.48682,1.541h-3.89794V85.11279h4.80419a4.62427,4.62427,0,0,1,3.85254,1.541q1.22388,1.54248,1.22364,4.98486Z" transform="translate(-7.90877 -16.44141)"/><path class="ab81b008-3117-470c-ad1e-ba93b6b9f9ea" d="M208.09766,76.04834,197.94531,139.5h9.15528l1.72265-11.51172h12.23633L222.78223,139.5h10.06152L222.69141,76.04834ZM210.0918,119.377l4.80371-32.08838L219.7002,119.377Z" transform="translate(-7.90877 -16.44141)"/><polygon class="ab81b008-3117-470c-ad1e-ba93b6b9f9ea" points="223.213 68.671 233.637 68.671 233.637 123.059 243.608 123.059 243.608 68.671 254.033 68.671 254.033 59.607 223.213 59.607 223.213 68.671"/><path class="ab81b008-3117-470c-ad1e-ba93b6b9f9ea" d="M280.6123,75.32324q-7.3418,0-11.23925,4.16944-3.89941,4.17041-3.89844,11.78466v32.99414q0,7.61427,3.89844,11.78418,3.89648,4.17042,11.23925,4.16993,7.34326,0,11.24024-4.16993,3.89649-4.16894,3.89844-11.78418V91.27734q0-7.615-3.89844-11.78466Q287.9546,75.32447,280.6123,75.32324Zm5.167,49.583q0,6.25488-5.167,6.25488-5.16649,0-5.166-6.25488V90.64209q0-6.25414,5.166-6.25439,5.168,0,5.167,6.25439Z" transform="translate(-7.90877 -16.44141)"/><path class="ab81b008-3117-470c-ad1e-ba93b6b9f9ea" d="M332.28027,136.19141a42.579,42.579,0,0,1-.18066-4.39649v-9.78906a21.0693,21.0693,0,0,0-1.541-8.65723A9.19176,9.19176,0,0,0,325.48242,108.5q6.52589-3.082,6.52637-12.87207V90.64209q0-7.43115-3.53516-11.01318-3.53613-3.58008-11.24023-3.58057H302.18652V139.5h9.97071V113.666h3.44433q3.44385,0,4.98535,1.85839,1.541,1.85889,1.541,6.209v9.9707a43.30872,43.30872,0,0,0,.18164,4.89551,14.42262,14.42262,0,0,0,.72559,2.90039h10.15136A11.00328,11.00328,0,0,1,332.28027,136.19141ZM322.03809,97.89453q0,3.62548-1.4961,5.166a5.9817,5.9817,0,0,1-4.4873,1.541h-3.89746V85.11279h4.80468a4.62161,4.62161,0,0,1,3.85157,1.541q1.2246,1.54248,1.22461,4.98486Z" transform="translate(-7.90877 -16.44141)"/></g><g class="bbbc52a1-8f31-48fb-81d8-3041aed52e27"><path class="ab81b008-3117-470c-ad1e-ba93b6b9f9ea" d="M94.52531,16.44141v9.00036H84.1747L84.44928,74.978H74.58376L74.274,25.44177H63.92389V16.44141Z" transform="translate(-7.90877 -16.44141)"/><path class="ab81b008-3117-470c-ad1e-ba93b6b9f9ea" d="M122.33519,42.99257v9.00036H108.74457V70.44405h17.10088v9.00036H98.84437v-63.003h27.00108v9.00036H108.74457v17.5508Z" transform="translate(-7.90877 -16.44141)"/><path class="ab81b008-3117-470c-ad1e-ba93b6b9f9ea" d="M154.01661,79.44441,152.30652,68.0138H140.15575l-1.71009,11.43061h-9.09044l10.08037-63.003h14.49094l10.08037,63.003Zm-3.06033-19.98105-4.76994-31.86158-4.77042,31.86158Z" transform="translate(-7.90877 -16.44141)"/><path class="ab81b008-3117-470c-ad1e-ba93b6b9f9ea" d="M196.3184,16.44141h13.7703v63.003h-9.3602v-45.182l-6.84035,45.182H184.528L177.1476,34.89253V79.44441h-8.64052v-63.003h13.77078l7.29027,44.732Z" transform="translate(-7.90877 -16.44141)"/></g></g></g></svg>